<svg xmlns="http://www.w3.org/2000/svg" width="295.902" height="313.873" viewBox="0 0 295.902 313.873">
  <g id="Group_44710" data-name="Group 44710" transform="translate(-2482 24166.131)">
    <text id="Tennis_Fights" data-name="Tennis Fights" transform="translate(2487.775 -23865.258)" fill="#fff" font-size="42" font-family="Manrope" font-weight="700"><tspan x="0" y="0">Tennis Fights</tspan></text>
    <g id="Group_44707" data-name="Group 44707" transform="translate(2482 -24166.131)">
      <g id="Group_44701" data-name="Group 44701" transform="translate(32.907 0)">
        <g id="Group_44700" data-name="Group 44700" transform="translate(0)">
          <path id="Path_28773" data-name="Path 28773" d="M47.816,295.373Z" transform="translate(88.679 -153.97)" fill="#133959"/>
          <g id="Group_44698" data-name="Group 44698">
            <g id="Group_44696" data-name="Group 44696" transform="translate(67.677)">
              <g id="Group_44694" data-name="Group 44694" transform="translate(106.953 54.562)">
                <g id="Group_44689" data-name="Group 44689" transform="translate(4.014 96.08)">
                  <g id="Group_44688" data-name="Group 44688" transform="translate(0 0)">
                    <path id="Path_28774" data-name="Path 28774" d="M89.073,310.408,87.1,314.442l8.431,6.564,1.973-4.034Z" transform="translate(-81.806 -301.484)" fill="#88ca01"/>
                    <path id="Path_28775" data-name="Path 28775" d="M100.188,310.989l1.65-3.4-9.4-4.572-.683,1.4Z" transform="translate(-80.834 -303.022)" fill="#88ca01"/>
                    <path id="Path_28776" data-name="Path 28776" d="M91.4,305.626l-1.973,4.034,8.431,6.564,1.973-4.034Z" transform="translate(-81.323 -302.48)" fill="#88ca01"/>
                    <path id="Path_28777" data-name="Path 28777" d="M93.212,325.788l1.973-4.034-8.431-6.564-1.973,4.034Z" transform="translate(-82.281 -300.491)" fill="#88ca01"/>
                    <path id="Path_28778" data-name="Path 28778" d="M84.364,319.972l-1.652,3.4,9.4,4.572.683-1.4Z" transform="translate(-82.712 -299.498)" fill="#88ca01"/>
                  </g>
                </g>
                <g id="Group_44691" data-name="Group 44691" transform="translate(14.928 90.202)">
                  <g id="Group_44690" data-name="Group 44690" transform="translate(0.002 0)">
                    <rect id="Rectangle_12600" data-name="Rectangle 12600" width="3.186" height="14.329" transform="matrix(0.437, -0.899, 0.899, 0.437, 0, 2.865)" fill="#88ca01"/>
                  </g>
                  <path id="Path_28779" data-name="Path 28779" d="M104.635,306.793l-2.8,1.319-9.4-4.569-.69-3.016Z" transform="translate(-91.749 -297.659)" fill="#88ca01"/>
                </g>
                <g id="Group_44693" data-name="Group 44693" transform="translate(0 119.589)">
                  <g id="Group_44692" data-name="Group 44692" transform="translate(0 1.317)">
                    <rect id="Rectangle_12601" data-name="Rectangle 12601" width="3.186" height="14.329" transform="matrix(0.437, -0.899, 0.899, 0.437, 0, 2.865)" fill="#88ca01"/>
                  </g>
                  <path id="Path_28780" data-name="Path 28780" d="M80.542,323.8l2.8-1.319,9.4,4.572.69,3.016Z" transform="translate(-79.149 -322.484)" fill="#88ca01"/>
                </g>
                <path id="Path_28781" data-name="Path 28781" d="M143.1,228.244c-6.076-2.959-32.009-13.745-47.42,12.006-16.383,27.371,6.224,53.035-.572,74.162l9.863,4.794c12.423-18.393,46.565-16.459,57.979-46.249C173.678,244.933,149.177,231.2,143.1,228.244Zm3.659,24.944a1.645,1.645,0,1,1-.075,1.258A1.645,1.645,0,0,1,146.761,253.189Zm-3.866-10.162a1.641,1.641,0,1,1-.078,1.258,1.645,1.645,0,0,1,.078-1.258Zm-3.257,6.7a1.645,1.645,0,1,1,.759,2.2,1.645,1.645,0,0,1-.759-2.2Zm-.3,8.137a1.645,1.645,0,1,1-.762-2.2,1.645,1.645,0,0,1,.762,2.2Zm-3.571-18.3a1.642,1.642,0,1,1-.077,1.257A1.645,1.645,0,0,1,135.768,239.563Zm-3.245,6.7a1.645,1.645,0,1,1,.759,2.2,1.645,1.645,0,0,1-.759-2.2Zm-.3,8.137a1.227,1.227,0,1,0-.01,0Zm-3.257,6.7a1.386,1.386,0,1,0-.01,0Zm-.313-24.994a1.29,1.29,0,1,1-.01.01Zm-3.257,6.7a.642.642,0,1,1-.01,0Zm-3.257,6.7a.643.643,0,1,1-.01,0Zm-.3,8.137a1.661,1.661,0,1,0-.01,0Zm-9.449,11.907a.642.642,0,1,1-.01,0Zm-.3,8.137a1.664,1.664,0,1,0-.01,0Zm3.556-14.832a.686.686,0,1,1-.01,0Zm2.621-23.507a.755.755,0,1,1-.01-.007Zm-3.257,6.69a1.645,1.645,0,1,1,.759,2.2A1.645,1.645,0,0,1,115.016,246.028Zm-3.257,6.7a.632.632,0,1,1-.007,0Zm-.274,8.088a1.227,1.227,0,1,0-.007,0Zm-3.257,6.7a1.23,1.23,0,1,0-.007,0Zm-.338-24.947a1.164,1.164,0,1,1-.007,0Zm-3.257,6.7a1.637,1.637,0,1,1-.079,1.258,1.645,1.645,0,0,1,.079-1.258Zm-3.233,6.658a.842.842,0,1,1-.007-.007Zm14.413,47.312a96,96,0,0,0-10.46,6.86,2.064,2.064,0,0,1-3.292-1.6,96.27,96.27,0,0,0-1.065-12.465,2.064,2.064,0,0,1,2.942-2.182l5.886,2.86h0l5.886,2.86a2.064,2.064,0,0,1,.1,3.662Zm3.408-22.086a1.8,1.8,0,1,0-.012-.007Zm3.257-6.7a2.616,2.616,0,1,0-.007-.007Zm.3-8.137a.838.838,0,1,1-.007-.007Zm3.571,18.3a2.593,2.593,0,1,0-.007-.007Zm3.257-6.7a1.9,1.9,0,1,0-.007,0Zm3.257-6.7a1.645,1.645,0,1,0-.01,0Zm.274-8.088a.727.727,0,1,1-.007,0Zm3.593,18.247a1.374,1.374,0,1,0-.01,0Zm3.257-6.7a1.376,1.376,0,1,0-.01,0Zm3.233-6.658a.792.792,0,1,0-.007,0Zm.3-8.137a1.3,1.3,0,1,1-.007.008Zm3.6,18.247a.951.951,0,1,0-.007.007Zm3.233-6.658a1.893,1.893,0,1,0-.007.017Zm3.257-6.7a1.441,1.441,0,1,0-.01.017Z" transform="translate(-77.269 -223.476)" fill="#88ca01"/>
              </g>
              <g id="Group_44695" data-name="Group 44695" transform="translate(0)">
                <circle id="Ellipse_1341" data-name="Ellipse 1341" cx="3.755" cy="3.755" r="3.755" fill="#88ca01"/>
              </g>
            </g>
            <g id="Group_44697" data-name="Group 44697" transform="translate(0 0.803)">
              <path id="Path_28782" data-name="Path 28782" d="M133.357,344.326c-.311-2.478-9.617-8.214-9.617-8.214A70.7,70.7,0,0,0,114.6,338.2a21.981,21.981,0,0,0-4.8-6.391,81.141,81.141,0,0,0-15.8-37.195,186.913,186.913,0,0,0-7.982-19.648l-11.39,5.578,9.841-8.137s4.192-2.091,4.648-5.346-9.686-10.228-18.21-18.131-18.74-24.02-42.309-14.566l-9.824,4.177a87.737,87.737,0,0,1-3.657,12.171,85.452,85.452,0,0,0,0-10.615,33.415,33.415,0,0,0,2.015-12.862,19.58,19.58,0,0,0,6.779,3.452,34.255,34.255,0,0,1-3.3-14.3c-6.636-1.457-27.284-6.019-25.529-5.918,2.093.116,25.687,2.9,25.687,2.9a22.928,22.928,0,0,0,4.106-.232c1.4-.311.774-33.474-33.629-34.171-18.284-.37-28.012,18.015-28.012,18.015S-66.1,204-65.167,207.255s27.526,2.577,27.526,2.577a21.453,21.453,0,0,0-.281,10.63l.079-.081.025.338s1.435,2.219,5.309-.326,3.023-3.874,8.293-3.487,4.357,1.588,2.789,3.1a8.813,8.813,0,0,1-10.3,4.727,12.44,12.44,0,0,0-3.977-.419c1.613,2.239,2.032,2.712,1.536,4.951-.619,2.791-4.456,9.1-3.06,10.036a14.687,14.687,0,0,0,5.114,1.161s.814,2.752,1.512,3.06l5.38-.454-4.554,2.466c-.131.6-.165,1.815.412,2.1a19.191,19.191,0,0,1,3.178,7.826c.93,4.069,11.74.35,15.227-2.441,1.3-1.041,1.546-.661.907.646h0A28.648,28.648,0,0,0,3.792,265.464s-10.223-1.571-16.028-8.4l.017-.027c-.972,1.317-2.219,2.848-3.684,4.493C4.036,291.441,58.546,312.2,70.651,316.519c-2.466-12.129-4.875-29.92-4.875-29.92s12.243,20.767,19.993,35.8S99.4,350.6,102.97,353.548c1.361,1.124,2.774,2.3,3.866,3.349a23.861,23.861,0,0,0,6.515,4.453l7.38,3.408c.853-.138,4.7-.967,4.012-4.626a3.746,3.746,0,0,0,2.633-4.34,6.559,6.559,0,0,0,3.1-7.36S133.667,346.8,133.357,344.326ZM-33.95,237a66.779,66.779,0,0,1,2.426-6.845l.143-.36,3.1,7.205C-28.436,237.548-33.937,237.7-33.95,237Zm4.352-38.588h-2.947A32.591,32.591,0,0,1-5.267,180.975,41.776,41.776,0,0,0-29.6,198.418ZM4.5,239.516c-1.161,3.945-9.415,10.11-9.415,10.11A130.329,130.329,0,0,0,2.522,238.64c2.219-4.009,5-10.985,5-10.985s-1.862,7.918-3.026,11.87Zm9.067,32.3a.878.878,0,1,1,0,.017Zm6.626,9.53a.87.87,0,1,1,0,.02ZM47.561,239.8c-4.651-.619-23.3,1.531-22.839,1.233s20.3-5.58,24.833-3.563,17.939,13.878,17.939,13.878c3.4,2.956-15.286-10.9-19.934-11.53Z" transform="translate(65.189 -178.967)" fill="#88ca01"/>
            </g>
          </g>
          <g id="Group_44699" data-name="Group 44699" transform="translate(26.837 87.668)">
            <path id="Path_28783" data-name="Path 28783" d="M-7.062,327.161s-.7,19.759-13.715,34.171A353.848,353.848,0,0,0,87.549,385.974s-57.8-13.638-77.181-25.726l46.646,9.762s-33.474-13.315-41.377-17.665c0,0,39.983,8.988,60.6,8.833,0,0-30.066-7.748-38.9-11.469L72.6,349.9l-22.086-8.1-15.37.912s-18.565.328-26.315-2.772S-7.062,327.161-7.062,327.161Z" transform="translate(47.584 -235.03)" fill="#007a10"/>
            <path id="Path_28784" data-name="Path 28784" d="M103.433,345.224s-5.918-2.093-8.949,1.393-3.139,5.114-11.856,4.532-39.9-15.187-57.417-19.372c0,0-19.838-24.8-26.192-31a38.569,38.569,0,0,0,5.736-4.8c.93-1.4-10.539-14.258-10.539-14.258A137.7,137.7,0,0,0,8.163,293.035c4.806,2.944-2.944,8.214-2.944,8.214s18.287,22.316,21.852,25.726S75.423,345.261,80.227,346.5s5.425-1.085,2.015-7.595c-2.653-5.062-7.363-15.924-10.712-22.4l-3.235,2.959-14.566,11L67.044,313.5,53.1,319.775l6.594-5.065a20.094,20.094,0,0,0,6.165-7.891,35.907,35.907,0,0,0,8.137-.353l-7.3-1.845C.608,283.428-24.682,250.884-24.682,250.884c-8.524,8.214-17.978,7.129-18.287,21.386s11.932,33.165,11,37.813,8.524,0,8.524,0,22.471,30.374,35.18,39.051S72.8,364.633,82.717,366.8s28.6,6.276,27.43-.774c0,0,2.323-1.549,2.323-3.1a3.391,3.391,0,0,0-.774-2.323,2.347,2.347,0,0,0,1.7-3.405s3.331,1.085,4.192-1.859a6.113,6.113,0,0,0-1.509-5.368ZM-35.739,286.372c-8.105-18.74,2.836-26.416,2.836-26.416C-39.645,269.575-35.739,286.372-35.739,286.372Z" transform="translate(42.974 -250.884)" fill="#007a10"/>
          </g>
        </g>
      </g>
      <g id="Group_44706" data-name="Group 44706" transform="translate(0 60.812)">
        <path id="Path_28785" data-name="Path 28785" d="M-46.955,345.732a61.869,61.869,0,0,1-4.835-5.4c-.764-.932-1.41-1.955-2.118-2.924l-1.038-1.479-.91-1.553A52.379,52.379,0,0,1-61.55,321.3a59.214,59.214,0,0,1-2.315-14,86.24,86.24,0,0,1,3.674-28.071,114.707,114.707,0,0,1,4.848-13.377c.932-2.18,1.946-4.32,3-6.433.168-.33.343-.666.515-1A22.042,22.042,0,0,1-62.4,263.435,121.573,121.573,0,0,0-66.4,277.653a91.57,91.57,0,0,0-1.726,30.009,62.958,62.958,0,0,0,3.546,14.645,55.1,55.1,0,0,0,6.944,13.244l1.058,1.534,1.184,1.443c.8.947,1.541,1.946,2.394,2.843a63.449,63.449,0,0,0,5.329,5.141,77.019,77.019,0,0,0,12,8.47,76.318,76.318,0,0,1-11.286-9.249Z" transform="translate(97.389 -222.468)" fill="#dcc89e"/>
        <path id="Path_28786" data-name="Path 28786" d="M-74.316,306.5a88.334,88.334,0,0,1-.636-9.05,82.435,82.435,0,0,1,1.586-17.9l.986-4.364c.412-1.43.767-2.875,1.216-4.286s.9-2.816,1.425-4.192c.459-1.248,1-2.56,1.5-3.632a22.018,22.018,0,0,1-7.856-3.233c-.538,1.605-.925,3.011-1.295,4.512-.4,1.583-.722,3.171-1.033,4.759s-.515,3.186-.774,4.769l-.51,4.789a87.642,87.642,0,0,0,.493,19.105,91.812,91.812,0,0,0,1.748,9.333,83.353,83.353,0,0,0,2.942,8.978,79.862,79.862,0,0,0,8.776,16.467,78.629,78.629,0,0,1-6.744-17.128A80.556,80.556,0,0,1-74.316,306.5Z" transform="translate(95.024 -222.171)" fill="#dcc89e"/>
        <path id="Path_28787" data-name="Path 28787" d="M-48.651,356.5a98.575,98.575,0,0,1-16.055-13.382A75.183,75.183,0,0,1-76.88,326.391,79.153,79.153,0,0,1-86,286.771a93.555,93.555,0,0,1,2.777-20.235,86.219,86.219,0,0,1,3.1-9.617c.059-.148.126-.293.185-.439a22.02,22.02,0,0,1-3.531-11.705,55.087,55.087,0,0,0-4.162,9.37,93.892,93.892,0,0,0-2.875,10.741,100.515,100.515,0,0,0-1.9,21.9,84.5,84.5,0,0,0,11.836,41.727,78.88,78.88,0,0,0,13.614,16.871,101.164,101.164,0,0,0,17.184,12.928A146.262,146.262,0,0,0-10.137,373.7a145.25,145.25,0,0,1-38.514-17.2Z" transform="translate(92.434 -225.292)" fill="#91cc00"/>
        <g id="Group_44705" data-name="Group 44705" transform="translate(13.626)">
          <g id="Group_44704" data-name="Group 44704" transform="translate(0)">
            <g id="Group_44702" data-name="Group 44702">
              <path id="Path_28788" data-name="Path 28788" d="M-70.212,249.736a17.7,17.7,0,0,0-10.9-5.21,17.614,17.614,0,0,0,5.112,11,17.613,17.613,0,0,0,11,5.114A17.7,17.7,0,0,0-70.212,249.736Z" transform="translate(81.16 -225.352)" fill="#91cc00"/>
              <path id="Path_28789" data-name="Path 28789" d="M-58.45,241.286a20.035,20.035,0,0,1-5.918-12.635,17.623,17.623,0,0,0-11.624,5.158,17.626,17.626,0,0,0-5.159,11.624,20.04,20.04,0,0,1,12.632,5.918A20.035,20.035,0,0,1-62.6,263.986a17.623,17.623,0,0,0,11.624-5.159A17.623,17.623,0,0,0-45.817,247.2,20.04,20.04,0,0,1-58.45,241.286Z" transform="translate(81.15 -228.651)" fill="#91cc00"/>
            </g>
            <g id="Group_44703" data-name="Group 44703" transform="translate(19.179 0.044)">
              <path id="Path_28790" data-name="Path 28790" d="M-60.063,239.587a17.7,17.7,0,0,1-5.21-10.9,17.613,17.613,0,0,1,11,5.112,17.613,17.613,0,0,1,5.112,11,17.7,17.7,0,0,1-10.9-5.21Z" transform="translate(65.273 -228.688)" fill="#91cc00"/>
            </g>
          </g>
        </g>
      </g>
    </g>
  </g>
</svg>
