<svg xmlns="http://www.w3.org/2000/svg" width="40" height="31.279" viewBox="0 0 40 31.279">
  <g id="sales" transform="translate(0 -55.784)">
    <g id="Group_2562" data-name="Group 2562" transform="translate(0 63.265)">
      <path id="Path_1291" data-name="Path 1291" d="M38.826,172.947H36.462V157.311a1.173,1.173,0,0,0-1.174-1.172H28.8a1.173,1.173,0,0,0-1.174,1.172v15.636H24.417V152.665a1.173,1.173,0,0,0-1.174-1.172H16.758a1.173,1.173,0,0,0-1.174,1.172v20.281H12.372V156.07A1.173,1.173,0,0,0,11.2,154.9H4.713a1.173,1.173,0,0,0-1.174,1.172v16.877H1.174a1.172,1.172,0,1,0,0,2.345H38.826a1.172,1.172,0,1,0,0-2.345Zm-32.938,0v-15.7h4.136v15.7Zm12.045,0V153.838h4.136v19.109Zm12.045,0V158.483h4.136v14.463Z" transform="translate(0 -151.493)" fill="#fff"/>
    </g>
    <path id="Path_1292" data-name="Path 1292" d="M46.519,60.245a1.174,1.174,0,0,0-.9-1.244l-3.788-.921a1.172,1.172,0,1,0-.554,2.278l1.071.26-3.037,1.874L27.795,55.937a1.172,1.172,0,0,0-1.078-.042L15.269,61.268,9.8,57.853a1.172,1.172,0,1,0-1.241,1.989L14.569,63.6a1.172,1.172,0,0,0,1.119.067l11.475-5.386,11.592,6.6a1.21,1.21,0,0,0,1.2-.021l3.682-2.272-.245,1.148a1.173,1.173,0,0,0,2.293.49l.813-3.806a1.35,1.35,0,0,0,.026-.169Z" transform="translate(-7.378)" fill="#fff"/>
  </g>
</svg>
