<svg xmlns="http://www.w3.org/2000/svg" width="54" height="48.805" viewBox="0 0 54 48.805">
  <g id="g3029" transform="translate(-67.24 -89.292)">
    <path id="path99" d="M120.581,124.326a7.808,7.808,0,0,1,4.975-.3c1.7.436,3.726,2.419,5.05,2.94,1.307.493,2.247.51,2.665.074a2.413,2.413,0,0,0-.35-2.711,12.821,12.821,0,0,0-4.419-3.7,20.07,20.07,0,0,0-6.941-1.427,11.781,11.781,0,0,0-5.331,1.2c-1.221.642-1.152,1.989-1.891,2.562-.751.522-1.851.069-2.528.676a6.348,6.348,0,0,0-1.542,2.94c-.413,1.307.16,3.078-.912,4.826a22.194,22.194,0,0,1-5.606,5.5,22.177,22.177,0,0,1-3.015-5.124c-.6-1.582-.378-2.482-.636-4.224-.286-1.754-.143-4.5-1.049-6.179a9.4,9.4,0,0,0-4.419-3.846,4.923,4.923,0,0,0-4.557.682,6.873,6.873,0,0,0-1.611,4.895,9.221,9.221,0,0,0,2.241,5.279c1.29,1.341,3.915,1.874,5.4,2.791a12.329,12.329,0,0,1,3.3,2.637c1.141,1.3,2.591,3.846,3.508,4.975.877,1.089,1.1,1.49,1.823,1.582.722.069,1.416-.447,2.453-1.129a24.641,24.641,0,0,0,3.645-3.015,27.272,27.272,0,0,0,3.227-4.3l2.734,3.617a39.708,39.708,0,0,0-4.419,4.075c-1.289,1.364-2.619,2.545-3.083,4.069-.459,1.5-.143,2.43.418,4.975.567,2.562,2.109,8.013,2.946,10.248.814,2.19,1.181,2.654,1.966,2.94a2.116,2.116,0,0,0,2.734-1.278c.338-1.41-.321-4.643-.631-7.09-.315-2.471-.7-4.924-1.192-7.538l5.68-4.293c3.353,4.734,6.013,8.477,8.133,11.383,2.1,2.877,3.187,4.454,4.413,5.875,1.2,1.416,1.869,2.27,2.809,2.562.94.258,2.522.052,2.734-.974.166-1.043-.115-2.115-1.685-5.2-1.616-3.135-4.918-8.15-7.784-13.343C126.949,136.752,123.946,130.969,120.581,124.326Zm-29.644-5.468c-1.6,1.227-1.892,4.964-.017,7.807s5.21,3.7,6.815,2.476,1.725-4.689-.155-7.531S92.542,117.631,90.937,118.858Zm5.967,11.75a2.2,2.2,0,0,0,.762-.115,2.6,2.6,0,0,0,.865-.43,3.223,3.223,0,0,0,.676-1.02,4.831,4.831,0,0,0,.1,1.45,14,14,0,0,0,.573,2.069,7.758,7.758,0,0,0-1.33-1.089A10.208,10.208,0,0,0,96.9,130.608Z" transform="translate(-18.103 -23.874)" fill="#fff" fill-rule="evenodd"/>
    <path id="path101" d="M210.292,93.895a4.29,4.29,0,1,0,4.282-4.6A4.446,4.446,0,0,0,210.292,93.895Z" transform="translate(-122.051 0)" fill="#fff" fill-rule="evenodd"/>
    <path id="path103" d="M67.24,254.715a2.911,2.911,0,1,0,2.906-3.124A3.021,3.021,0,0,0,67.24,254.715Z" transform="translate(0 -138.472)" fill="#fff" fill-rule="evenodd"/>
  </g>
</svg>
