<svg xmlns="http://www.w3.org/2000/svg" width="30" height="30" viewBox="0 0 30 30">
  <g id="user" transform="translate(0)">
    <g id="Group_2572" data-name="Group 2572" transform="translate(0)">
      <path id="Path_1302" data-name="Path 1302" d="M29.924,25.706a1.172,1.172,0,0,0-2.295.478,1.225,1.225,0,0,1-.248,1.027,1.191,1.191,0,0,1-.937.446H3.557a1.191,1.191,0,0,1-.937-.446,1.224,1.224,0,0,1-.248-1.027A12.948,12.948,0,0,1,14.69,15.932q.155.006.311.006t.312-.006a12.892,12.892,0,0,1,10.411,5.722,1.172,1.172,0,1,0,1.947-1.305,15.243,15.243,0,0,0-7.9-6,7.969,7.969,0,1,0-9.539,0A15.242,15.242,0,0,0,.076,25.706,3.56,3.56,0,0,0,3.557,30H26.444a3.56,3.56,0,0,0,3.48-4.294ZM9.375,7.969a5.625,5.625,0,1,1,5.91,5.618l-.285,0-.284,0A5.632,5.632,0,0,1,9.375,7.969Z" transform="translate(0)" fill="#fff"/>
    </g>
  </g>
</svg>
